<?xml version="1.0" encoding="utf-8"?>
<!-- Generator: Adobe Illustrator 27.2.0, SVG Export Plug-In . SVG Version: 6.00 Build 0)  -->
<svg version="1.1" id="Layer_1" xmlns="http://www.w3.org/2000/svg" xmlns:xlink="http://www.w3.org/1999/xlink" x="0px" y="0px"
	 viewBox="0 0 1332.6 1140.4" style="enable-background:new 0 0 1332.6 1140.4;" xml:space="preserve">
<style type="text/css">
	.st0{display:none;fill:#19191A;}
	.st1{fill:#FFFFFF;}
	.st2{fill:url(#SVGID_1_);}
	.st3{fill:url(#SVGID_00000011033356610296245640000006242700897275508096_);}
	.st4{fill:url(#SVGID_00000057129517705586922100000005075740283668729239_);}
	.st5{fill:url(#SVGID_00000145018955263501370190000010015386279888007820_);}
	.st6{fill:url(#SVGID_00000142896332014631685910000001289236131595210675_);}
	.st7{fill:url(#SVGID_00000087413911790720315110000011396699334002364307_);}
	.st8{fill:url(#SVGID_00000179642696141771816920000014278965302343688108_);}
</style>
<rect id="BG" x="0" class="st0" width="1332.6" height="1140.4"/>
<g>
	<path class="st1" d="M1016.97,552.43c0.2,30.17-1.42,60.4-3.53,90.52c-1.95,27.91-4.24,55.9-11.5,83.15
		c-10.5,39.34-36.03,62.87-75.71,70.57c-31.16,6.04-62.84,8-94.5,9.04c-58.73,1.92-117.49,3.26-176.24,4.83
		c-3.96,0.11-7.93,0.01-11.89,0.01c-0.01,0.21-0.02,0.43-0.02,0.64c-53.14-1.44-106.28-2.64-159.41-4.4
		c-25.89-0.86-51.78-2.3-77.6-4.34c-16.07-1.26-32.27-3.03-47.99-6.51c-40.23-8.9-64.62-34.33-73.73-74.42
		c-6.23-27.44-8.93-55.35-10.38-83.38c-1.49-28.83-3.83-57.7-3.44-86.53c0.51-37.75,3.18-75.47,5.2-113.19
		c1.22-22.59,4.15-45.03,10.03-66.92c10.1-37.58,34.5-60.8,72.4-69.12c28.12-6.17,56.86-7.74,85.53-8.94
		c45.67-1.91,91.36-3.96,137.06-4.71c47.54-0.78,95.11-0.64,142.65,0.12c37.78,0.62,75.54,2.36,113.27,4.39
		c25.19,1.34,50.34,3.71,75.44,6.22c26.75,2.67,50.59,11.85,68.85,32.76c12.09,13.83,19.51,29.86,22.24,47.8
		c3.5,22.95,7.16,45.96,8.82,69.09C1014.99,483.49,1016.74,517.98,1016.97,552.43z"/>
	<linearGradient id="SVGID_1_" gradientUnits="userSpaceOnUse" x1="574.506" y1="584.4219" x2="691.6996" y2="466.2352">
		<stop  offset="0" style="stop-color:#CB3A95"/>
		<stop  offset="1" style="stop-color:#ECDD19"/>
	</linearGradient>
	<path class="st2" d="M565.43,620.32V468.35c0-15.95,17.27-25.92,31.09-17.94c43.85,25.32,87.54,50.55,131.55,75.97
		c13.81,7.98,13.81,27.92,0,35.9c-43.92,25.37-87.58,50.59-131.55,76C582.71,646.25,565.43,636.28,565.43,620.32z"/>
	<g>
		
			<linearGradient id="SVGID_00000037693202799354397190000009427112974950822534_" gradientUnits="userSpaceOnUse" x1="849.1028" y1="307.5947" x2="990.2288" y2="449.5136">
			<stop  offset="0" style="stop-color:#CB3A95"/>
			<stop  offset="1" style="stop-color:#ECDD19"/>
		</linearGradient>
		<path style="fill:url(#SVGID_00000037693202799354397190000009427112974950822534_);" d="M962.22,430.62c-4,0-7.53-2.88-8.23-6.95
			c-11.86-69.23-90.01-72.98-93.33-73.11c-4.61-0.17-8.21-4.05-8.04-8.66c0.17-4.61,4.05-8.21,8.64-8.05
			c0.96,0.03,23.9,0.95,48.75,11.86c33.66,14.78,54.57,40.76,60.45,75.13c0.78,4.55-2.28,8.87-6.83,9.65
			C963.17,430.58,962.69,430.62,962.22,430.62z"/>
	</g>
	
		<linearGradient id="SVGID_00000036932004524054882410000007948019548255279519_" gradientUnits="userSpaceOnUse" x1="837.8145" y1="318.8199" x2="978.9405" y2="460.7388">
		<stop  offset="0" style="stop-color:#CB3A95"/>
		<stop  offset="1" style="stop-color:#ECDD19"/>
	</linearGradient>
	<circle style="fill:url(#SVGID_00000036932004524054882410000007948019548255279519_);" cx="965.47" cy="447.19" r="8.3"/>
	<g>
		
			<linearGradient id="SVGID_00000154398282643633579420000006548336161847782578_" gradientUnits="userSpaceOnUse" x1="275.1802" y1="649.9988" x2="441.6943" y2="791.2835">
			<stop  offset="0" style="stop-color:#CB3A95"/>
			<stop  offset="1" style="stop-color:#ECDD19"/>
		</linearGradient>
		<path style="fill:url(#SVGID_00000154398282643633579420000006548336161847782578_);" d="M323.77,671.91c4,0,7.53,2.88,8.23,6.95
			c11.86,69.23,90.01,72.98,93.33,73.11c4.61,0.17,8.21,4.05,8.04,8.66c-0.17,4.61-4.05,8.21-8.64,8.05
			c-0.96-0.03-23.9-0.95-48.75-11.86c-33.66-14.78-54.57-40.76-60.45-75.13c-0.78-4.55,2.28-8.87,6.83-9.65
			C322.83,671.95,323.31,671.91,323.77,671.91z"/>
	</g>
	
		<linearGradient id="SVGID_00000126312224083235197200000005932978336770254998_" gradientUnits="userSpaceOnUse" x1="291.5307" y1="630.7286" x2="458.0448" y2="772.0133">
		<stop  offset="0" style="stop-color:#CB3A95"/>
		<stop  offset="1" style="stop-color:#ECDD19"/>
	</linearGradient>
	<circle style="fill:url(#SVGID_00000126312224083235197200000005932978336770254998_);" cx="320.53" cy="655.34" r="8.3"/>
	<g>
		
			<linearGradient id="SVGID_00000010274202398507233510000018322223364513301667_" gradientUnits="userSpaceOnUse" x1="699.3719" y1="161.5871" x2="712.1011" y2="908.3663">
			<stop  offset="0" style="stop-color:#CB3A95"/>
			<stop  offset="1" style="stop-color:#ECDD19"/>
		</linearGradient>
		<path style="fill:url(#SVGID_00000010274202398507233510000018322223364513301667_);" d="M621.32,228.99
			c10.69-16.91,33.06-21.94,49.97-11.24l115.43,73.03c-20.94-0.88-41.87-1.57-62.81-1.91c-25.56-0.41-51.15-0.65-76.71-0.65
			l-14.65-9.26C615.66,268.26,610.63,245.89,621.32,228.99z"/>
		
			<linearGradient id="SVGID_00000003811030670016466080000008202934953553833910_" gradientUnits="userSpaceOnUse" x1="864.8432" y1="158.7665" x2="877.5724" y2="905.5458">
			<stop  offset="0" style="stop-color:#CB3A95"/>
			<stop  offset="1" style="stop-color:#ECDD19"/>
		</linearGradient>
		<path style="fill:url(#SVGID_00000003811030670016466080000008202934953553833910_);" d="M1121.69,566.49
			c-0.94,38.94-22.67,73.34-58.17,92.2l-54.65,32.12L812.34,806.32l-131.08,77.04c-5.78,3.38-12.09,4.99-18.32,4.99
			c-12.42,0-24.51-6.39-31.26-17.87c-10.14-17.26-4.38-39.45,12.88-49.58l17.95-10.56l353.33-207.67l12.52-7.35l0.83-0.43
			c17.06-8.89,19.91-22.69,20.09-30.14c0.33-14.39-8.22-28.09-22.9-36.64l-1.14-0.71l-8.87-5.6c-0.73-24.26-2.1-48.5-3.83-72.69
			c-0.39-5.46-0.9-10.93-1.49-16.39l52.41,33.16C1100.91,487.96,1122.66,525.52,1121.69,566.49z"/>
	</g>
	<g>
		<line class="st1" x1="685.86" y1="517.48" x2="710.66" y2="531.29"/>
		<path class="st1" d="M710.66,533.51c-0.37,0-0.74-0.09-1.08-0.28l-24.8-13.8c-1.08-0.6-1.46-1.96-0.86-3.03
			c0.6-1.07,1.95-1.46,3.03-0.86l24.8,13.8c1.08,0.6,1.46,1.96,0.86,3.03C712.2,533.1,711.44,533.51,710.66,533.51z"/>
	</g>
	<circle class="st1" cx="717.6" cy="535.18" r="2.43"/>
</g>
</svg>
